<svg version="1.1" id="b64cf065-0b14-4dcc-bc9a-47d068723bbe" xmlns="http://www.w3.org/2000/svg" xmlns:xlink="http://www.w3.org/1999/xlink" x="0px" y="0px" viewBox="0 0 453.9 207" style="enable-background:new 0 0 453.9 207;" xml:space="preserve">
<style>.st0{fill:#00205B;}
.st1{fill:#A6192E;}
.st2{fill:#222D65;}</style>
<title>logo</title>
<g id="logo">
<path class="st0" d="M35,126.6c-3.5,3.9-6.7,9.1-5.7,13c0.2,0.6,0.4,1.1,0.6,1.8c9.6,7.2,31.4-5.7,35.6-17.2
C65.7,123.6,48.1,136.6,35,126.6z"></path>
<g>
<path class="st0" d="M74.6,1.3c-0.5-0.4-1-0.7-1.5-1.1C61.1,0,51,23.2,54.4,35c0.2,0.7,6.8-20.2,23.2-19.8
C78.1,10,77.7,3.9,74.6,1.3z"></path>
<path class="st0" d="M93.8,3.5c12,6.7,17.8,35.6,5.4,63.2l-17.4-0.1l-7.3-26.2c0,0,16.6-35.1-1.4-40.2
C92.7-2.6,102.2,26.2,87,55.9C97.4,39.6,105.3,17.6,93.8,3.5z"></path>
<path class="st0" d="M16.2,55.5C11.4,53.3,5.5,51.9,2,54c-0.5,0.3-1,0.7-1.5,1.1c-3.9,11.4,15.1,28.1,27.4,28.5
C28.6,83.7,10.8,70.9,16.2,55.5z"></path>
<path class="st0" d="M10,36.4c10.1-9.4,39.3-5.9,61.8,14.4l-5.5,16.5l-27.2-1.2c0,0-28.3-26.6-38.7-11.1
c3.4-19.5,33.8-19.6,57.2,4C45.6,44.1,27,29.8,10,36.4z"></path>
<path class="st0" d="M15.1,126.6c-5.8-12.5,6.5-39.2,32.8-54.3l14,10.3l-9.5,25.5c0,0-34,18.7-22.5,33.3
c-17.5-9.3-8.2-38.2,21.5-53.2C33.3,95.2,14,108.4,15.1,126.6z"></path>
<path class="st0" d="M116.3,101.3c-0.5-0.4,6.4,20.3-7.1,29.7c2.6,4.6,6.5,9.2,10.6,9.5c0.6,0,1.2,0,1.8,0
C131.5,133.6,126,108.9,116.3,101.3z"></path>
<path class="st0" d="M103,150c-13.7,1.6-35.3-18.3-41.5-48l14.2-10.1l21.3,16.9c0,0,7.3,38.1,24.8,31.7c-14.2,13.7-38.9-4-44-36.9
C78.8,122.9,85.4,145.4,103,150z"></path>
<path class="st0" d="M148,54.8c0.2-0.6,0.4-1.1,0.6-1.8c-3.5-11.5-28.7-13.8-38.9-7c-0.6,0.4,21.3,0.2,26,15.9
C140.8,60.9,146.4,58.6,148,54.8z"></path>
<path class="st0" d="M151.8,73.7c-2.7,13.5-28.3,27.9-58.5,24.7l-5.3-16.6l22.7-15c0,0,38.5,4.9,37.8-13.7
c8.7,17.8-15.8,35.7-48.7,30.4C118.5,88.4,142,89.1,151.8,73.7z"></path>
<path class="st0" d="M430.6,76.9c5.2-4.6,8.2-11.1,8.2-18c0-15.4-13.7-27.4-31.2-27.4s-31.2,12-31.2,27.4c0,6.9,3,13.4,8.2,18
c-8.3,4.6-13.5,13.4-13.4,22.9c0,18.8,14.9,31.9,36.3,31.9s36.3-13.1,36.3-31.9C444.1,90.3,438.9,81.5,430.6,76.9z M407.6,50.1
c5.9,0,9,5.6,9,9.6s-3.1,9.6-9,9.6s-9.1-5.6-9.1-9.6S401.7,50.1,407.6,50.1L407.6,50.1z M407.6,111.3c-10.4,0-14.2-7-14.2-11.8
c0-5.7,4.4-11.5,14.2-11.5s14.2,5.8,14.2,11.5C421.8,104.3,418,111.3,407.6,111.3L407.6,111.3z"></path>
<polygon class="st0" points="363.9,129.9 341,129.9 341,67 328.9,75.2 328.9,50 363.9,29 		"></polygon>
<path class="st1" d="M303.9,95.9l-1.9,2.5c-5.3,7.1-13.6,11.3-22.5,11.2c-12.1,0-22.6-8.3-26.3-19.4c-0.1-0.4-0.2-0.8-0.3-1.1
c-0.7-2.4-1.1-5-1.1-7.5c0-15.2,12.7-28,27.7-28c8.9-0.1,17.2,4.3,22.1,11.7l1.9,2.7l19-14.3l-2-2.5c-9.9-12.6-25-19.9-41-19.7
c-25.3,0-45.8,16.8-50.5,39.8c-4.5-1-9.1-1.6-13.3-2.1c-13.4-1.7-19.7-3-19.7-8.3c0-4.5,4.9-9.1,15.8-9.1
c5.6-0.1,11.1,1.5,15.7,4.6c3.4-6.8,8.1-12.8,13.9-17.6c-8.1-4.9-17.7-7.3-28.8-7.3c-23.1,0-40.5,13-40.5,30.3
c0,23.9,22.1,26.9,38.3,29c12.3,1.7,19.9,2.9,19.9,8.4c0,7.5-9.5,10.2-18.4,10.3s-17.7-4.1-24.4-11.2l-2.1-2.2l-17.4,15.6l2.2,2.3
c10.7,11.2,25.5,17.6,40.9,17.6c12.6,0,25.6-4.3,34-12.4c9.6,8.1,21.7,12.5,34.3,12.4c16,0.2,31.1-7.1,41-19.7l2.1-2.6L303.9,95.9
z"></path>
</g>
</g>
<g id="tagline">
<path class="st0" d="M247.8,150.6h8.1c6.5,0,10.3,4.5,10.3,9.6s-4,9.6-10.3,9.6h-8.1V150.6z M251.4,166.4h4.5
c4.1,0,6.7-2.8,6.7-6.2s-2.7-6.2-6.7-6.2h-4.5L251.4,166.4z"></path>
<path class="st0" d="M280,167.9L280,167.9c-1.2,1.4-3,2.3-4.9,2.2c-4.2,0-7.6-3.4-7.7-7.6c0-0.1,0-0.1,0-0.2
c0.1-4.3,3.5-7.7,7.8-7.8c1.8-0.1,3.6,0.7,4.7,2.2h0.1V155h3.2v14.8H280V167.9z M275.5,167.2c2.6,0.1,4.8-2,4.9-4.7
c0.1-2.6-2-4.8-4.7-4.9s-4.8,2-4.9,4.7c0,0,0,0.1,0,0.1C270.8,165,272.9,167.1,275.5,167.2L275.5,167.2z"></path>
<path class="st0" d="M289.1,150.6v13.2c0,1.7,0.4,2.3,1.3,2.9l1.7,1l-1.4,2.5c-3.3-1.6-4.8-2.7-4.8-5.8v-13.8H289.1z"></path>
<path class="st0" d="M296.4,150.6v13.2c0,1.7,0.4,2.3,1.3,2.9l1.7,1l-1.4,2.5c-3.3-1.6-4.8-2.7-4.8-5.8v-13.8H296.4z"></path>
<path class="st0" d="M311.9,167.9L311.9,167.9c-1.2,1.4-3,2.3-4.9,2.2c-4.2,0-7.6-3.4-7.7-7.6c0-0.1,0-0.1,0-0.2
c0.1-4.3,3.5-7.7,7.8-7.8c1.8-0.1,3.6,0.7,4.7,2.2h0.1V155h3.1v14.8h-3.2L311.9,167.9z M307.4,167.2c2.6,0.1,4.8-2,4.9-4.7
c0.1-2.6-2-4.8-4.7-4.9s-4.8,2-4.9,4.7c0,0,0,0.1,0,0.1C302.6,165,304.7,167.1,307.4,167.2L307.4,167.2z"></path>
<path class="st0" d="M319.1,165.4c1.2,1.3,2.9,2.1,4.6,2.2c1.8,0,2.9-1,2.9-1.9c0-1-0.8-1.5-1.9-1.7l-1.8-0.3
c-4.1-0.8-5.3-2.1-5.3-4.2c0-2.5,2.1-4.8,5.8-4.8c2.1,0,4.2,0.7,5.9,2l-1.8,2.2c-1.1-1-2.5-1.6-4-1.6c-1.4,0-2.7,0.7-2.7,1.9
c0,0.9,0.7,1.3,1.9,1.6l3.2,0.6c2.6,0.5,3.9,1.7,3.9,3.9s-1.8,5-6.2,5c-2.5,0-4.8-0.9-6.6-2.6L319.1,165.4z"></path>
<path class="st0" d="M331.4,166.6h3.2v3.5l-3.2,2.1V166.6z"></path>
<path class="st0" d="M307.4,179.9h-5.6v-3.4h14.8v3.4h-5.6v15.8h-3.5V179.9z"></path>
<path class="st0" d="M324.1,186.1l-5.9-9.6h4.2l3.7,6.5l3.9-6.5h4l-5.9,9.6l5.9,9.6h-4.2l-3.7-6.5l-3.9,6.5h-4L324.1,186.1z"></path>
<rect x="341" y="141" class="st2" width="2.3" height="66"></rect>
<path class="st1" d="M350.1,150.3h3.3v6.5h0.1c1-1.5,2.8-2.4,4.7-2.3c3.2,0,5.9,2.7,5.9,6.5v9.2h-3.3v-8.5c0-2.8-1.5-3.9-3.6-3.9
c-2-0.1-3.6,1.4-3.8,3.4c0,0.2,0,0.3,0,0.5v8.5h-3.3L350.1,150.3z"></path>
<path class="st1" d="M369.8,156.7L369.8,156.7c1.3-1.5,3.1-2.3,5.1-2.3c4.3,0,7.9,3.5,7.9,7.8c0,0.1,0,0.1,0,0.2
c-0.1,4.4-3.7,7.9-8.1,8c-1.9,0.1-3.7-0.8-4.9-2.3h-0.1v7.1h-3.3v-20.4h3.3L369.8,156.7z M374.5,157.5c-2.7-0.1-5,2.1-5,4.8
c-0.1,2.7,2.1,5,4.8,5s5-2.1,5-4.8c0,0,0-0.1,0-0.1C379.4,159.8,377.2,157.6,374.5,157.5L374.5,157.5z"></path>
<path class="st1" d="M396.6,159.8c-0.8-1.4-2.3-2.3-4-2.3c-2.7,0-4.9,2.2-4.9,5c0,2.7,2.2,4.9,4.9,4.9c1.7,0,3.2-0.9,4-2.3l2.9,1.7
c-1.5,2.3-4.1,3.7-6.8,3.7c-4.4,0-8-3.6-8-8s3.6-8,8-8c2.8-0.1,5.4,1.3,6.8,3.7L396.6,159.8z"></path>
<path class="st1" d="M351.8,175.4c1,0,1.8,0.8,1.8,1.8s-0.8,1.8-1.8,1.8c-1,0-1.8-0.8-1.8-1.8v0C350,176.2,350.8,175.4,351.8,175.4
z M350.2,180.3h3.3v15.2h-3.3V180.3z"></path>
<path class="st1" d="M356.3,180.3h3.3v1.9h0.1c1-1.5,2.8-2.4,4.7-2.3c3.2,0,5.9,2.7,5.9,6.5v9.2H367v-8.5c0-2.8-1.5-3.9-3.6-3.9
c-2-0.1-3.6,1.4-3.8,3.4c0,0.2,0,0.3,0,0.5v8.5h-3.3L356.3,180.3z"></path>
<path class="st1" d="M373.8,191c1.2,1.3,3,2.1,4.8,2.2c1.9,0,3-1.1,3-1.9c0-1-0.8-1.5-2-1.8l-1.9-0.4c-4.3-0.8-5.5-2.2-5.5-4.4
c0-2.6,2.2-5,6-5c2.2,0,4.3,0.8,6,2.1l-1.9,2.3c-1.1-1-2.6-1.7-4.1-1.7c-1.4,0-2.8,0.7-2.8,1.9c0,0.9,0.7,1.4,2,1.6l3.3,0.6
c2.7,0.5,4,1.8,4,4.1s-1.8,5.1-6.5,5.1c-2.5,0-5-1-6.9-2.7L373.8,191z"></path>
<path class="st1" d="M390.1,182.2L390.1,182.2c1.3-1.5,3.1-2.3,5.1-2.3c4.3,0,7.9,3.5,7.9,7.8c0,0.1,0,0.1,0,0.2
c-0.1,4.4-3.7,7.9-8.1,8c-1.9,0.1-3.7-0.8-4.9-2.3h-0.1v7.1h-3.3v-20.4h3.3L390.1,182.2z M394.8,183c-2.7-0.1-5,2.1-5,4.8
c-0.1,2.7,2.1,5,4.8,5s5-2.1,5-4.8c0,0,0-0.1,0-0.1C399.7,185.2,397.5,183,394.8,183L394.8,183z"></path>
<path class="st1" d="M406.8,175.4c1,0,1.8,0.8,1.8,1.8s-0.8,1.8-1.8,1.8c-1,0-1.8-0.8-1.8-1.8v0C405,176.2,405.8,175.4,406.8,175.4
z M405.2,180.3h3.3v15.2h-3.3V180.3z"></path>
<path class="st1" d="M411.3,180.3h3.1v1.7h0.1c0.5-1.2,1.7-2.1,3-2.1c0.6,0,1.3,0.1,1.8,0.5l-1.2,3.2c-0.4-0.3-0.8-0.4-1.2-0.4
c-1.2,0-2.3,1-2.3,2.2c0,0,0,0,0,0.1v10.1h-3.3V180.3z"></path>
<path class="st1" d="M434.3,192.2c-1.7,2.3-4.3,3.6-7.1,3.7c-4.4,0-8-3.6-8-8s3.6-8,8-8c4.5,0.2,8.1,4,7.9,8.5c0,0,0,0.1,0,0.1v0.6
h-12.7c0.3,2.3,2.3,4.1,4.7,4c1.8,0,3.4-0.9,4.4-2.4L434.3,192.2z M431.3,186.4c-0.5-2.1-2.4-3.6-4.5-3.6c-2.1,0-3.9,1.5-4.3,3.6
H431.3z"></path>
<path class="st1" d="M437.7,191c1.2,1.3,3,2.1,4.8,2.2c1.9,0,3-1.1,3-1.9c0-1-0.8-1.5-2-1.8l-1.9-0.4c-4.3-0.8-5.5-2.2-5.5-4.4
c0-2.6,2.2-5,6-5c2.2,0,4.3,0.8,6,2.1l-1.9,2.3c-1.1-1-2.6-1.6-4.1-1.7c-1.4,0-2.8,0.7-2.8,1.9c0,0.9,0.7,1.4,2,1.6l3.3,0.6
c2.7,0.5,4,1.8,4,4.1s-1.8,5.2-6.4,5.2c-2.5,0-5-1-6.9-2.7L437.7,191z"></path>
<path class="st1" d="M451.9,192.2c1.1,0,2,0.9,2,2s-0.9,2-2,2s-2-0.9-2-2S450.8,192.2,451.9,192.2z"></path>
</g>
</svg>